<svg width="21" height="16" viewBox="0 0 21 16" fill="none" xmlns="http://www.w3.org/2000/svg">
<path d="M20.5 4.608V12.75C20.5001 13.5801 20.1824 14.3788 19.6123 14.9822C19.0422 15.5856 18.2628 15.948 17.434 15.995L17.25 16H3.75C2.91986 16.0001 2.12117 15.6824 1.51777 15.1123C0.914367 14.5422 0.551999 13.7628 0.505 12.934L0.5 12.75V4.608L10.152 9.664C10.2594 9.72024 10.3788 9.74962 10.5 9.74962C10.6212 9.74962 10.7406 9.72024 10.848 9.664L20.5 4.608ZM3.75 2.36051e-08H17.25C18.0556 -9.70147e-05 18.8325 0.298996 19.43 0.839267C20.0276 1.37954 20.4032 2.12248 20.484 2.924L10.5 8.154L0.516 2.924C0.593523 2.15431 0.94305 1.43752 1.50175 0.902463C2.06045 0.367409 2.79168 0.049187 3.564 0.00500014L3.75 2.36051e-08Z" fill="white"/>
</svg>
