<svg width="19" height="22" viewBox="0 0 19 22" fill="none" xmlns="http://www.w3.org/2000/svg">
<path d="M11.234 20.816C13.8485 18.515 18.5 13.814 18.5 9.5C18.5 7.11305 17.5518 4.82387 15.864 3.13604C14.1761 1.44821 11.8869 0.5 9.5 0.5C7.11305 0.5 4.82387 1.44821 3.13604 3.13604C1.44821 4.82387 0.5 7.11305 0.5 9.5C0.5 13.814 5.15 18.515 7.766 20.816C8.24317 21.2419 8.8604 21.4773 9.5 21.4773C10.1396 21.4773 10.7568 21.2419 11.234 20.816ZM6.5 9.5C6.5 8.70435 6.81607 7.94129 7.37868 7.37868C7.94129 6.81607 8.70435 6.5 9.5 6.5C10.2956 6.5 11.0587 6.81607 11.6213 7.37868C12.1839 7.94129 12.5 8.70435 12.5 9.5C12.5 10.2956 12.1839 11.0587 11.6213 11.6213C11.0587 12.1839 10.2956 12.5 9.5 12.5C8.70435 12.5 7.94129 12.1839 7.37868 11.6213C6.81607 11.0587 6.5 10.2956 6.5 9.5Z" fill="white"/>
</svg>
